<svg xmlns="http://www.w3.org/2000/svg" width="158" height="48" viewBox="0 0 158 48" fill="none">
<mask id="mask0_8692_30432" style="mask-type:alpha" maskUnits="userSpaceOnUse" x="0" y="0" width="158" height="48">
<rect x="0.046875" width="157" height="48" rx="16" fill="#1E2534"/>
</mask>
<g mask="url(#mask0_8692_30432)">
<rect x="0.046875" width="157" height="48" rx="16" fill="#FF7565"/>
<path d="M81.5557 18.2766C80.782 18.2766 80.1298 18.006 79.6141 17.4731C79.1025 16.9552 78.8169 16.2412 78.8297 15.5123C78.8297 14.7343 79.094 14.0757 79.6141 13.5535C80.1277 13.0207 80.7799 12.75 81.5536 12.75C82.3187 12.75 82.9709 13.0207 83.4953 13.5535C84.0153 14.0928 84.2796 14.7514 84.2796 15.5123C84.2711 16.2923 84.0068 16.9509 83.4953 17.471C82.9816 18.0081 82.3294 18.2766 81.5557 18.2766ZM58.535 18.2766C57.7783 18.2766 57.1219 18.0102 56.5848 17.4838C56.0519 16.9595 55.7812 16.2966 55.7812 15.5144C55.7812 14.7322 56.0519 14.0693 56.5848 13.545C57.1112 13.0186 57.7677 12.7521 58.535 12.7521C58.9101 12.7521 59.2745 12.8267 59.6241 12.9781C59.9672 13.1251 60.2464 13.3255 60.4532 13.5706L60.5043 13.6324L59.9267 14.1993L59.8671 14.129C59.541 13.7411 59.104 13.5514 58.5264 13.5514C58.0106 13.5514 57.5609 13.7347 57.1901 14.097C56.8171 14.4615 56.6274 14.9389 56.6274 15.5165C56.6274 16.0941 56.8171 16.5715 57.1901 16.936C57.5609 17.2983 58.0106 17.4816 58.5264 17.4816C59.0763 17.4816 59.5388 17.2983 59.899 16.936C60.1122 16.7229 60.2443 16.4245 60.2912 16.0472H58.439V15.2501H61.0862L61.0968 15.3226C61.116 15.4568 61.1352 15.5954 61.1352 15.7233C61.1352 16.4586 60.9136 17.0532 60.4745 17.4923C59.9758 18.0123 59.3236 18.2766 58.535 18.2766ZM89.1433 18.1637H88.327L85.827 14.1631L85.8483 14.8835V18.1615H85.032V12.8651H85.9634L85.9889 12.9056L88.3398 16.6738L88.3185 15.9556V12.8651H89.1433V18.1637ZM75.4217 18.1637H74.5947V13.6622H73.1603V12.8651H76.854V13.6622H75.4196V18.1637H75.4217ZM72.4868 18.1637H71.662V12.8651H72.4868V18.1637ZM67.8511 18.1637H67.0263V13.6622H65.5919V12.8651H69.2855V13.6622H67.8511V18.1637ZM65.0697 18.1552H61.9068V12.8651H65.0697V13.6622H62.7337V15.1158H64.8416V15.9044H62.7337V17.358H65.0697V18.1552ZM80.2194 16.9254C80.5881 17.2941 81.0357 17.4795 81.5557 17.4795C82.0907 17.4795 82.5276 17.2983 82.8921 16.9254C83.2544 16.563 83.4377 16.0877 83.4377 15.5144C83.4377 14.941 83.2544 14.4636 82.8942 14.1034C82.5255 13.7347 82.0758 13.5493 81.5579 13.5493C81.0229 13.5493 80.586 13.7304 80.2236 14.1034C79.8613 14.4658 79.678 14.941 79.678 15.5144C79.678 16.0877 79.8592 16.5652 80.2194 16.9254Z" fill="white"/>
<path fillRule="evenodd" clipRule="evenodd" d="M78.7511 25.5622C76.7369 25.5622 75.1043 27.0904 75.1043 29.1983C75.1043 31.2871 76.7476 32.8344 78.7511 32.8344C80.7652 32.8344 82.3979 31.2956 82.3979 29.1983C82.3979 27.0904 80.7652 25.5622 78.7511 25.5622ZM78.7511 31.3936C77.6492 31.3936 76.7007 30.4814 76.7007 29.1898C76.7007 27.879 77.6513 26.986 78.7511 26.986C79.853 26.986 80.8015 27.879 80.8015 29.1898C80.8036 30.4899 79.853 31.3936 78.7511 31.3936ZM70.7947 25.5622C68.7805 25.5622 67.1479 27.0904 67.1479 29.1983C67.1479 31.2871 68.7912 32.8344 70.7947 32.8344C72.8088 32.8344 74.4415 31.2956 74.4415 29.1983C74.4415 27.0904 72.8067 25.5622 70.7947 25.5622ZM70.7947 31.3936C69.6928 31.3936 68.7443 30.4814 68.7443 29.1898C68.7443 27.879 69.6949 26.986 70.7947 26.986C71.8966 26.986 72.8451 27.879 72.8451 29.1898C72.8451 30.4899 71.8966 31.3936 70.7947 31.3936ZM61.3271 26.6726V28.2115H65.0208C64.9078 29.0747 64.6222 29.712 64.1853 30.1489C63.6439 30.6903 62.8084 31.2785 61.3357 31.2785C59.0657 31.2785 57.2903 29.4456 57.2903 27.1756C57.2903 24.9057 59.0657 23.0728 61.3357 23.0728C62.5612 23.0728 63.4542 23.5566 64.1171 24.1747L65.2084 23.0834C64.2876 22.201 63.0621 21.5254 61.3442 21.5254C58.2303 21.5254 55.6172 24.0617 55.6172 27.1671C55.6172 30.281 58.2281 32.8089 61.3442 32.8089C63.0258 32.8089 64.2876 32.259 65.2851 31.2231C66.3018 30.2065 66.6236 28.772 66.6236 27.6147C66.6236 27.2545 66.5959 26.9305 66.5383 26.6556H61.325C61.3271 26.6535 61.3271 26.6726 61.3271 26.6726ZM100.052 27.8705C99.7472 27.0542 98.8265 25.5537 96.9381 25.5537C95.0667 25.5537 93.5108 27.0265 93.5108 29.1898C93.5108 31.2316 95.0497 32.8259 97.1192 32.8259C98.7817 32.8259 99.7494 31.8092 100.148 31.2125L98.9139 30.3855C98.5046 30.9929 97.9356 31.3915 97.1278 31.3915C96.3115 31.3915 95.7402 31.0206 95.3609 30.2896L100.223 28.2754C100.223 28.2776 100.052 27.8705 100.052 27.8705ZM95.0944 29.0854C95.0561 27.6808 96.1857 26.9668 96.9935 26.9668C97.6308 26.9668 98.1615 27.2801 98.3427 27.7362L95.0944 29.0854ZM91.145 32.6085H92.7414V21.9261H91.145V32.6085ZM88.5234 26.37H88.4659C88.1057 25.9416 87.4215 25.5537 86.5476 25.5537C84.7338 25.5537 83.0629 27.1501 83.0629 29.2004C83.0629 31.2423 84.7253 32.8195 86.5476 32.8195C87.4109 32.8195 88.1057 32.4295 88.4659 31.9925H88.5234V32.5147C88.5234 33.9022 87.7817 34.6504 86.586 34.6504C85.6077 34.6504 85.0003 33.947 84.753 33.3587L83.3655 33.9385C83.7641 34.8976 84.8276 36.0848 86.5839 36.0848C88.4552 36.0848 90.041 34.9828 90.041 32.2952V25.7711H88.532V26.37C88.5341 26.37 88.5234 26.37 88.5234 26.37ZM86.6905 31.3936C85.5885 31.3936 84.6678 30.4729 84.6678 29.2004C84.6678 27.9174 85.5885 26.9881 86.6905 26.9881C87.7817 26.9881 88.6279 27.928 88.6279 29.2004C88.6385 30.4729 87.7838 31.3936 86.6905 31.3936ZM107.527 21.9261H103.709V32.6085H105.306V28.5632H107.529C109.296 28.5632 111.033 27.2822 111.033 25.2489C111.033 23.2156 109.302 21.9261 107.527 21.9261ZM107.574 27.0712H105.304V23.4053H107.574C108.769 23.4053 109.445 24.3921 109.445 25.2382C109.445 26.0759 108.761 27.0712 107.574 27.0712ZM117.431 25.543C116.272 25.543 115.076 26.0567 114.582 27.1756L115.997 27.7639C116.302 27.1756 116.86 26.9753 117.45 26.9753C118.277 26.9753 119.113 27.4698 119.132 28.3522V28.4651C118.846 28.3031 118.22 28.0559 117.47 28.0559C115.941 28.0559 114.392 28.8914 114.392 30.458C114.392 31.8924 115.645 32.8131 117.041 32.8131C118.113 32.8131 118.704 32.3293 119.072 31.7687H119.13V32.5957H120.669V28.5035C120.669 26.598 119.254 25.543 117.431 25.543ZM117.231 31.3936C116.709 31.3936 115.978 31.1379 115.978 30.4814C115.978 29.6544 116.89 29.3411 117.668 29.3411C118.371 29.3411 118.704 29.4924 119.121 29.7013C119.006 30.6604 118.196 31.3851 117.231 31.3936ZM126.283 25.7711L124.45 30.4047H124.392L122.493 25.7711H120.775L123.625 32.2483L122.001 35.8482H123.663L128.048 25.7711H126.283ZM111.913 32.6085H113.509V21.9261H111.913V32.6085Z" fill="white"/>
<path opacity="0.5" fillRule="evenodd" clipRule="evenodd" d="M29.4369 13.4072C29.1897 13.6736 29.0469 14.0807 29.0469 14.6135V33.5123C29.0469 34.0452 29.1897 34.4523 29.4454 34.708L29.5115 34.7656L40.1002 24.1769V23.9404L29.503 13.3496L29.4369 13.4072Z" fill="white"/>
<path opacity="0.2" fillRule="evenodd" clipRule="evenodd" d="M43.6254 27.7168L40.0938 24.1852V23.9379L43.6254 20.4062L43.7022 20.4531L47.8797 22.8275C49.0754 23.501 49.0754 24.6136 47.8797 25.2956L43.7022 27.67L43.6254 27.7168Z" fill="white"/>
<path opacity="0.3" fillRule="evenodd" clipRule="evenodd" d="M43.7006 27.669L40.0922 24.0605L29.4375 34.7153C29.8275 35.133 30.4819 35.1799 31.2129 34.7728L43.7006 27.669Z" fill="white"/>
<path opacity="0.3" fillRule="evenodd" clipRule="evenodd" d="M43.7006 20.4534L31.2129 13.3602C30.4819 12.9425 29.8254 13 29.4375 13.4178L40.0922 24.0618L43.7006 20.4534Z" fill="white"/>
</g>
</svg>