<svg xmlns="http://www.w3.org/2000/svg" width="158" height="48" viewBox="0 0 158 48" fill="none">
<mask id="mask0_8692_30403" style="mask-type:alpha" maskUnits="userSpaceOnUse" x="0" y="0" width="158" height="48">
<rect x="0.046875" width="157" height="48" rx="16" fill="#FD605B"/>
</mask>
<g mask="url(#mask0_8692_30403)">
<rect x="0.046875" width="157" height="48" rx="16" fill="#FF7565"/>
<path d="M59.8766 15.5112L59.4117 14.0548C59.2976 13.6951 59.2011 13.2938 59.1134 12.9516H59.0958C59.0103 13.2938 58.9203 13.7039 58.8173 14.0548L58.361 15.5112H59.8766ZM58.1856 16.325L57.6767 18.0007H56.5625L58.4576 12.0918H59.8328L61.752 18.0007H60.5961L60.0609 16.325" fill="white"/>
<path d="M63.3622 13.7324L64.0553 15.8951C64.1781 16.2723 64.2636 16.6145 64.3426 16.9654H64.3689C64.4479 16.6145 64.5444 16.2811 64.6584 15.8951L65.3428 13.7324H66.4723L64.8427 18.0007H63.7833L62.1953 13.7324" fill="white"/>
<path d="M69.7237 15.9115C68.9604 15.9027 68.2322 16.0606 68.2322 16.7098C68.2322 17.131 68.5042 17.324 68.8464 17.324C69.2828 17.324 69.5921 17.0432 69.6952 16.7362C69.7237 16.6572 69.7237 16.5782 69.7237 16.4993V15.9115ZM70.7743 16.973C70.7743 17.3591 70.7919 17.7363 70.8445 17.9973H69.8707L69.7939 17.5258H69.7654C69.5131 17.857 69.0657 18.0938 68.5042 18.0938C67.6444 18.0938 67.1641 17.4731 67.1641 16.8239C67.1641 15.7535 68.1182 15.203 69.6952 15.2118V15.1416C69.6952 14.8608 69.5833 14.3959 68.8288 14.3959C68.4077 14.3959 67.969 14.5275 67.6795 14.7117L67.4689 14.0098C67.7848 13.8168 68.3375 13.6348 69.0131 13.6348C70.3795 13.6348 70.7743 14.5011 70.7743 15.4399" fill="white"/>
<path d="M72.3036 13.7322H73.3805V18.0004H72.3036V13.7322ZM72.8366 13.118C72.4791 13.118 72.2422 12.8548 72.2422 12.539C72.2422 12.2056 72.4856 11.9512 72.8476 11.9512C73.2138 11.9512 73.4419 12.2056 73.4507 12.539C73.4507 12.8548 73.2138 13.118 72.8476 13.118" fill="white"/>
<path d="M74.9297 17.9991H76.0088V11.7656H74.9297V17.9991Z" fill="white"/>
<path d="M79.8253 15.9115C79.062 15.9027 78.3338 16.0606 78.3338 16.7098C78.3338 17.131 78.6058 17.324 78.9479 17.324C79.3866 17.324 79.6937 17.0432 79.7989 16.7362C79.8253 16.6572 79.8253 16.5782 79.8253 16.4993V15.9115ZM80.8759 16.973C80.8759 17.3591 80.8934 17.7363 80.9461 17.9973H79.9744L79.8954 17.5258H79.8691C79.6147 17.857 79.1673 18.0938 78.6058 18.0938C77.7482 18.0938 77.2656 17.4731 77.2656 16.8239C77.2656 15.7535 78.2219 15.203 79.7989 15.2118V15.1416C79.7989 14.8608 79.6849 14.3959 78.9304 14.3959C78.5093 14.3959 78.0706 14.5275 77.7833 14.7117L77.5727 14.0098C77.8885 13.8168 78.4391 13.6348 79.1146 13.6348C80.4811 13.6348 80.8759 14.5011 80.8759 15.4399" fill="white"/>
<path d="M83.4814 16.2357C83.4814 16.3234 83.4902 16.4111 83.5077 16.4901C83.6218 16.9288 83.999 17.2446 84.4618 17.2446C85.1374 17.2446 85.5497 16.7094 85.5497 15.8431C85.5497 15.0885 85.19 14.4744 84.4706 14.4744C84.0319 14.4744 83.6306 14.7903 83.5165 15.264C83.499 15.343 83.4814 15.4395 83.4814 15.5448V16.2357ZM82.4023 11.7656H83.4814V14.3165H83.499C83.7622 13.9041 84.225 13.6344 84.8654 13.6344C85.9094 13.6344 86.653 14.5007 86.6442 15.7992C86.6442 17.3323 85.6726 18.0956 84.7075 18.0956C84.1548 18.0956 83.6656 17.8851 83.3586 17.3587H83.341L83.2884 17.9991H82.3672C82.3847 17.7096 82.4023 17.2358 82.4023 16.8059" fill="white"/>
<path d="M87.9141 17.9991H88.991V11.7656H87.9141V17.9991Z" fill="white"/>
<path d="M93.1918 15.4136C93.2006 15.0188 93.0251 14.3695 92.3079 14.3695C91.6411 14.3695 91.3604 14.9749 91.3165 15.4136H93.1918ZM91.3165 16.1659C91.3428 16.9379 91.9482 17.2713 92.6325 17.2713C93.1304 17.2713 93.4813 17.1924 93.8147 17.0783L93.9727 17.8131C93.6042 17.9732 93.0953 18.0851 92.4834 18.0851C91.0972 18.0851 90.2812 17.2362 90.2812 15.9312C90.2812 14.7468 91.0007 13.6348 92.3693 13.6348C93.7533 13.6348 94.2095 14.7731 94.2095 15.7119C94.2095 15.9137 94.192 16.0716 94.1744 16.1659" fill="white"/>
<path d="M99.5642 17.3152C100.176 17.3152 100.606 16.7186 100.606 15.8522C100.606 15.1855 100.308 14.4134 99.573 14.4134C98.8097 14.4134 98.5027 15.1591 98.5027 15.8698C98.5027 16.6923 98.915 17.3152 99.5533 17.3152H99.5642ZM99.5291 18.096C98.3272 18.096 97.3906 17.2713 97.3906 15.8961C97.3906 14.4924 98.3096 13.6348 99.5993 13.6348C100.869 13.6348 101.72 14.5275 101.72 15.8259C101.72 17.3942 100.615 18.096 99.5379 18.096" fill="white"/>
<path d="M102.986 15.0012C102.986 14.5099 102.971 14.0976 102.953 13.7291H103.89L103.942 14.3695H103.969C104.162 14.0361 104.627 13.6348 105.337 13.6348C106.081 13.6348 106.853 14.1151 106.853 15.4662V17.9973H105.774V15.589C105.774 14.9749 105.546 14.5099 104.96 14.5099C104.53 14.5099 104.232 14.817 104.118 15.1416C104.083 15.2293 104.065 15.3609 104.065 15.4838V17.9973H102.986" fill="white"/>
<path d="M111.823 12.6348V13.7292H112.847V14.5364H111.823V16.4117C111.823 16.9381 111.964 17.2013 112.374 17.2013C112.567 17.2013 112.672 17.1925 112.795 17.1574L112.812 17.9712C112.654 18.0348 112.365 18.0852 112.032 18.0852C111.63 18.0852 111.306 17.9536 111.104 17.7365C110.867 17.4908 110.762 17.096 110.762 16.5345V14.5364H110.156V13.7292H110.762V12.9331" fill="white"/>
<path d="M114.047 11.7656H115.126V14.3077H115.144C115.275 14.1059 115.459 13.9392 115.679 13.8252C115.898 13.7045 116.15 13.6344 116.422 13.6344C117.15 13.6344 117.912 14.1147 117.912 15.4834V17.9991H116.835V15.5974C116.835 14.9833 116.607 14.5095 116.01 14.5095C115.591 14.5095 115.293 14.7903 115.17 15.1149C115.135 15.2114 115.126 15.3254 115.126 15.4395V17.9991H114.047" fill="white"/>
<path d="M122.082 15.4136C122.091 15.0188 121.916 14.3695 121.196 14.3695C120.53 14.3695 120.251 14.9749 120.207 15.4136H122.082ZM120.207 16.1659C120.233 16.9379 120.837 17.2713 121.521 17.2713C122.021 17.2713 122.372 17.1924 122.703 17.0783L122.863 17.8131C122.495 17.9732 121.986 18.0851 121.372 18.0851C119.988 18.0851 119.172 17.2362 119.172 15.9312C119.172 14.7468 119.891 13.6348 121.258 13.6348C122.642 13.6348 123.098 14.7731 123.098 15.7119C123.098 15.9137 123.08 16.0716 123.063 16.1659" fill="white"/>
<path d="M44.7742 23.7281C44.7457 20.8043 47.1672 19.3809 47.279 19.3151C45.9082 17.3147 43.7828 17.0428 43.0349 17.0208C41.2517 16.8344 39.5211 18.0912 38.6131 18.0912C37.6853 18.0912 36.2838 17.0406 34.7769 17.0713C32.8336 17.102 31.0175 18.2272 30.0217 19.9709C27.9688 23.5307 29.4997 28.7596 31.4694 31.6373C32.4564 33.0454 33.6057 34.6202 35.1125 34.5632C36.5864 34.5018 37.137 33.6245 38.9158 33.6245C40.6792 33.6245 41.1969 34.5632 42.7344 34.5281C44.3158 34.5018 45.3116 33.1134 46.2613 31.6899C47.4018 30.0756 47.8581 28.4854 47.8756 28.4043C47.8383 28.3911 44.8049 27.233 44.7742 23.7281Z" fill="white"/>
<path d="M41.8729 15.1311C42.6647 14.1397 43.2108 12.7886 43.0573 11.4199C41.9102 11.4726 40.4757 12.2139 39.6488 13.1834C38.9184 14.0388 38.2626 15.4403 38.4337 16.7563C39.7234 16.8528 41.046 16.1071 41.8729 15.1311Z" fill="white"/>
<path d="M62.5655 29.3114L61.5478 26.1684C61.4403 25.8481 61.2386 25.0914 60.9403 23.9026H60.9052C60.7867 24.4137 60.5937 25.1704 60.3327 26.1684L59.3325 29.3114H62.5655ZM66.0837 34.332H64.0285L62.9033 30.7963H58.9948L57.9222 34.332H55.9219L59.7997 22.2949H62.1905" fill="white"/>
<path d="M74.0811 29.9559C74.0811 29.1092 73.8903 28.4139 73.5086 27.8656C73.0919 27.2953 72.5326 27.008 71.8307 27.008C71.3548 27.008 70.9205 27.1681 70.5367 27.4818C70.1506 27.7998 69.8962 28.2121 69.7756 28.7254C69.7163 28.9623 69.6878 29.1575 69.6878 29.311V30.7586C69.6878 31.3903 69.8808 31.9233 70.2669 32.3576C70.6551 32.7941 71.1574 33.009 71.7759 33.009C72.5041 33.009 73.07 32.7304 73.4714 32.1689C73.8793 31.6096 74.0811 30.8727 74.0811 29.9559ZM76.0464 29.8835C76.0464 31.3596 75.6472 32.5287 74.8488 33.3841C74.1338 34.1473 73.2454 34.5268 72.1883 34.5268C71.0433 34.5268 70.223 34.1144 69.7229 33.2941H69.6878V37.8673H67.7577V28.5083C67.7577 27.5805 67.7358 26.6286 67.6875 25.6503H69.383L69.4904 27.0277H69.5277C70.1704 25.9903 71.1464 25.4727 72.4558 25.4727C73.4779 25.4727 74.3355 25.8784 75.0177 26.6878C75.702 27.4993 76.0464 28.5631 76.0464 29.8835Z" fill="white"/>
<path d="M84.0633 29.9559C84.0633 29.1092 83.8725 28.4139 83.4908 27.8656C83.0741 27.2953 82.5148 27.008 81.8129 27.008C81.337 27.008 80.9049 27.1681 80.5188 27.4818C80.1306 27.7998 79.8806 28.2121 79.7621 28.7254C79.7007 28.9623 79.6722 29.1575 79.6722 29.311V30.7586C79.6722 31.3903 79.863 31.9233 80.2491 32.3576C80.6373 32.7941 81.1396 33.009 81.7603 33.009C82.4863 33.009 83.0522 32.7304 83.4557 32.1689C83.8593 31.6096 84.0633 30.8727 84.0633 29.9559ZM86.0263 29.8835C86.0263 31.3596 85.6293 32.5287 84.831 33.3841C84.1159 34.1473 83.2298 34.5268 82.1704 34.5268C81.0277 34.5268 80.2074 34.1144 79.7051 33.2941H79.6722V37.8673H77.7421V28.5083C77.7421 27.5805 77.7179 26.6286 77.6719 25.6503H79.3673L79.4748 27.0277H79.5121C80.1526 25.9903 81.1286 25.4727 82.438 25.4727C83.4623 25.4727 84.3155 25.8784 85.002 26.6878C85.6864 27.4993 86.0263 28.5631 86.0263 29.8835Z" fill="white"/>
<path d="M97.1893 30.9566C97.1893 31.9787 96.834 32.8122 96.1189 33.457C95.3337 34.1589 94.2436 34.5098 92.8421 34.5098C91.5458 34.5098 90.5062 34.2598 89.7188 33.7597L90.1662 32.1542C91.015 32.6652 91.9428 32.9197 92.9561 32.9197C93.6821 32.9197 94.248 32.7574 94.6538 32.4306C95.0574 32.1015 95.2591 31.6629 95.2591 31.1145C95.2591 30.6276 95.0946 30.2131 94.7613 29.8797C94.4279 29.5463 93.873 29.237 93.0987 28.9497C90.9909 28.1623 89.9381 27.0108 89.9381 25.4974C89.9381 24.5082 90.3066 23.6966 91.0457 23.065C91.7827 22.4333 92.7653 22.1152 93.9914 22.1152C95.0881 22.1152 95.9983 22.3082 96.7243 22.6877L96.2418 24.2603C95.564 23.8918 94.7964 23.7054 93.9388 23.7054C93.2588 23.7054 92.7302 23.8721 92.3508 24.2055C92.0305 24.5038 91.8682 24.8679 91.8682 25.2956C91.8682 25.7715 92.0503 26.1642 92.421 26.4734C92.7412 26.7586 93.3246 27.0678 94.1712 27.4034C95.2065 27.8201 95.9676 28.3071 96.4567 28.8664C96.9436 29.4257 97.1893 30.1231 97.1893 30.9566Z" fill="white"/>
<path d="M103.567 27.0983H101.442V31.3117C101.442 32.3843 101.817 32.9194 102.569 32.9194C102.911 32.9194 103.199 32.8909 103.425 32.8317L103.477 34.2947C103.1 34.4394 102.598 34.5096 101.979 34.5096C101.218 34.5096 100.622 34.2771 100.192 33.8143C99.764 33.3493 99.549 32.5685 99.549 31.474V27.0983H98.2812V25.6507H99.549V24.0627L101.442 23.4902V25.6507H103.567" fill="white"/>
<path d="M111.155 29.9822C111.155 29.1816 110.982 28.4973 110.635 27.9226C110.234 27.2295 109.655 26.883 108.905 26.883C108.131 26.883 107.541 27.2295 107.137 27.9226C106.79 28.4973 106.621 29.1948 106.621 30.0195C106.621 30.82 106.79 31.5044 107.137 32.0768C107.554 32.7699 108.137 33.1165 108.889 33.1165C109.624 33.1165 110.203 32.7655 110.62 32.0593C110.977 31.4759 111.155 30.7828 111.155 29.9822ZM113.155 29.9208C113.155 31.2543 112.776 32.3488 112.013 33.2064C111.214 34.0881 110.155 34.5268 108.835 34.5268C107.558 34.5268 106.545 34.1035 105.788 33.259C105.034 32.4146 104.656 31.3486 104.656 30.0633C104.656 28.7166 105.044 27.6156 105.825 26.7602C106.604 25.9004 107.655 25.4727 108.975 25.4727C110.249 25.4727 111.276 25.896 112.048 26.7404C112.787 27.5651 113.155 28.6223 113.155 29.9208Z" fill="white"/>
<path d="M119.425 27.348C119.234 27.3129 119.032 27.2953 118.817 27.2953C118.139 27.2953 117.613 27.552 117.244 28.063C116.924 28.517 116.764 29.0873 116.764 29.776V34.3316H114.836L114.851 28.3854C114.851 27.3831 114.827 26.4728 114.781 25.6503H116.461L116.532 27.3129H116.582C116.786 26.7426 117.108 26.282 117.547 25.9376C117.977 25.6284 118.442 25.4727 118.942 25.4727C119.12 25.4727 119.282 25.4858 119.425 25.5077" fill="white"/>
<path d="M126.21 29.0807C126.223 28.5104 126.098 28.0147 125.837 27.598C125.503 27.0628 124.988 26.793 124.299 26.793C123.67 26.793 123.157 27.0562 122.764 27.5804C122.444 27.9972 122.251 28.4973 122.196 29.0807H126.21ZM128.048 29.5808C128.048 29.9273 128.026 30.2168 127.98 30.4559H122.196C122.216 31.3135 122.496 31.9693 123.034 32.4212C123.521 32.8269 124.152 33.0265 124.927 33.0265C125.782 33.0265 126.563 32.8905 127.267 32.6164L127.57 33.9565C126.747 34.3118 125.778 34.4939 124.657 34.4939C123.312 34.4939 122.255 34.0969 121.487 33.3029C120.722 32.5133 120.336 31.4495 120.336 30.1159C120.336 28.8065 120.691 27.7164 121.408 26.8479C122.156 25.9179 123.17 25.4551 124.442 25.4551C125.692 25.4551 126.642 25.9179 127.284 26.8479C127.796 27.5848 128.048 28.4973 128.048 29.5808Z" fill="white"/>
</g>
</svg>