<svg width="14" height="14" viewBox="0 0 14 14" fill="none" xmlns="http://www.w3.org/2000/svg"><path d="M8.15327 1.33977L9.32661 3.68643C9.48661 4.0131 9.91327 4.32643 10.2733 4.38643L12.3999 4.73977C13.7599 4.96643 14.0799 5.9531 13.0999 6.92643L11.4466 8.57977C11.1666 8.85977 11.0133 9.39977 11.0999 9.78643L11.5733 11.8331C11.9466 13.4531 11.0866 14.0798 9.65327 13.2331L7.65994 12.0531C7.29994 11.8398 6.70661 11.8398 6.33994 12.0531L4.34661 13.2331C2.91994 14.0798 2.05327 13.4464 2.42661 11.8331L2.89994 9.78643C2.98661 9.39977 2.83327 8.85977 2.55327 8.57977L0.899939 6.92643C-0.073394 5.9531 0.23994 4.96643 1.59994 4.73977L3.72661 4.38643C4.07994 4.32643 4.50661 4.0131 4.66661 3.68643L5.83994 1.33977C6.47994 0.0664323 7.51994 0.0664323 8.15327 1.33977Z" fill="#DF82F6"></path></svg>